<svg width="284" height="284" viewBox="0 0 284 284" fill="none" xmlns="http://www.w3.org/2000/svg">
<path d="M182.017 64.0879C200.208 69.8748 220.141 76.2364 232.911 89.8608C245.681 103.485 251.542 124.343 247.849 142.812C244.171 161.407 231.066 177.598 218.353 192.713C205.754 207.686 193.405 221.47 177.455 231.927C161.391 242.526 141.583 249.685 122.992 247.166C104.414 244.775 87.0234 232.452 77.1043 216.697C67.3124 200.928 64.8649 181.743 63.795 164.463C62.725 147.183 63.1455 131.666 64.5914 113.841C66.0374 96.0164 68.749 75.7266 79.9591 64.3926C91.2965 53.044 111.118 50.5239 129.31 51.7991C147.517 53.2015 163.953 58.2865 182.017 64.0879Z" fill="#D0E2FF"/>
</svg>
