<svg width="52" height="52" viewBox="0 0 52 52" fill="none" xmlns="http://www.w3.org/2000/svg">
<path d="M38.9999 23.4433C38.4253 23.4433 37.8742 23.6716 37.4679 24.0779C37.0615 24.4843 36.8333 25.0354 36.8333 25.61V41.1667C36.8333 41.7413 36.605 42.2924 36.1987 42.6987C35.7923 43.1051 35.2412 43.3333 34.6666 43.3333H10.8333C10.2586 43.3333 9.70752 43.1051 9.30119 42.6987C8.89486 42.2924 8.66659 41.7413 8.66659 41.1667V17.3333C8.66659 16.7587 8.89486 16.2076 9.30119 15.8013C9.70752 15.3949 10.2586 15.1667 10.8333 15.1667H26.3899C26.9646 15.1667 27.5157 14.9384 27.922 14.5321C28.3283 14.1257 28.5566 13.5746 28.5566 13C28.5566 12.4254 28.3283 11.8743 27.922 11.4679C27.5157 11.0616 26.9646 10.8333 26.3899 10.8333H10.8333C9.10934 10.8333 7.45604 11.5182 6.23706 12.7371C5.01807 13.9561 4.33325 15.6094 4.33325 17.3333V41.1667C4.33325 42.8906 5.01807 44.5439 6.23706 45.7629C7.45604 46.9818 9.10934 47.6667 10.8333 47.6667H34.6666C36.3905 47.6667 38.0438 46.9818 39.2628 45.7629C40.4818 44.5439 41.1666 42.8906 41.1666 41.1667V25.61C41.1666 25.0354 40.9383 24.4843 40.532 24.0779C40.1257 23.6716 39.5746 23.4433 38.9999 23.4433ZM47.4933 5.67667C47.2734 5.14724 46.8527 4.72653 46.3233 4.50667C46.0628 4.39564 45.7831 4.33676 45.4999 4.33333H32.4999C31.9253 4.33333 31.3742 4.56161 30.9679 4.96793C30.5615 5.37426 30.3333 5.92536 30.3333 6.5C30.3333 7.07463 30.5615 7.62573 30.9679 8.03206C31.3742 8.43839 31.9253 8.66667 32.4999 8.66667H40.2783L17.9616 30.9617C17.7585 31.1631 17.5973 31.4027 17.4873 31.6668C17.3773 31.9308 17.3207 32.214 17.3207 32.5C17.3207 32.786 17.3773 33.0692 17.4873 33.3332C17.5973 33.5973 17.7585 33.8369 17.9616 34.0383C18.163 34.2414 18.4026 34.4026 18.6667 34.5126C18.9307 34.6226 19.2139 34.6792 19.4999 34.6792C19.7859 34.6792 20.0691 34.6226 20.3332 34.5126C20.5972 34.4026 20.8368 34.2414 21.0383 34.0383L43.3333 11.7217V19.5C43.3333 20.0746 43.5615 20.6257 43.9679 21.0321C44.3742 21.4384 44.9253 21.6667 45.4999 21.6667C46.0746 21.6667 46.6257 21.4384 47.032 21.0321C47.4383 20.6257 47.6666 20.0746 47.6666 19.5V6.5C47.6632 6.21686 47.6043 5.93715 47.4933 5.67667Z" fill="black"/>
</svg>
